<svg xmlns="http://www.w3.org/2000/svg" xml:space="preserve" width="655.359" height="655.359" style="shape-rendering:geometricPrecision;text-rendering:geometricPrecision;image-rendering:optimizeQuality;fill-rule:evenodd;clip-rule:evenodd" viewBox="0 0 6.827 6.827"><defs><style>.fil1{fill:none}.fil2{fill:#87CEEB;fill-rule:nonzero}</style></defs><g id="Layer_x0020_1"><path style="fill:#87CEEB;fill-rule:nonzero" d="M5.523 4.95V1.307l-2.877.576v3.385h-.32V1.622l.13-.026 3.196-.64.19-.038V4.95z"/><g id="_490150776"><path id="_490150920" class="fil1" d="M0 0h6.827v6.827H0z"/><path id="_490150320" class="fil1" d="M.853.853h5.12v5.12H.853z"/></g><path class="fil2" d="M1.815 4.63c.219 0 .42.065.567.17a.58.58 0 0 1 .264.469.58.58 0 0 1-.264.469.983.983 0 0 1-.567.17.983.983 0 0 1-.567-.17.58.58 0 0 1-.264-.469c0-.187.1-.352.264-.469a.983.983 0 0 1 .567-.17zM5.012 4.31c.219 0 .42.065.567.17a.58.58 0 0 1 .264.47.58.58 0 0 1-.264.468.983.983 0 0 1-.567.17.983.983 0 0 1-.567-.17.58.58 0 0 1-.264-.469c0-.187.1-.352.264-.469a.983.983 0 0 1 .567-.17z"/></g></svg>